<?xml version="1.0" encoding="UTF-8"?>
<svg id="Layer_1" xmlns="http://www.w3.org/2000/svg" version="1.1" viewBox="0 0 991.41 285.22">
  <!-- Generator: Adobe Illustrator 30.3.0, SVG Export Plug-In . SVG Version: 2.1.3 Build 182)  -->
  <defs>
    <style>
      .st0 {
        fill: #5cbf8f;
      }
    </style>
  </defs>
  <path class="st0" d="M225.46,0l65.52,40.9s5.82,6.12,4.34,12.9c-4.64-2.14-39.23-16.15-88.99,21.8,17.02-22.53,44.89-37.21,44.89-37.21l8.97,3.1L225.46,0Z"/>
  <path class="st0" d="M22.23,285.22c17.78-8.55,35.66-16.91,53.41-25.52,16.91-8.21,34.3-16.05,49.66-26.98,5.18-3.69,10.15-7.69,14.81-12.02,12.01-11.16,24.88-25.96,26.62-42.94,1.62-15.72-3.85-33.19-16.41-41.3-12.28-7.93-25.82-14.35-39.11-20.38,0,0-18.58-7.47-20.04-8.38s-8.46-5.46,13.75-18.87c0,0,32.79-16.76,42.27-20.86,0,0-14.94,29.06-7.65,55.47,2.31-4.68,27.81-33.84,75.54-72.34-11.66-6.07-25.14-23.91-26.11-31.44-.24-1.86-47.1,11.12-49.68,12.01-41.66,14.38-95.67,40.43-110.93,85.59-1.08,3.2-1.91,6.56-1.66,9.92.25,3.37,1.72,6.77,4.48,8.72,1.92,1.35,4.27,1.9,6.56,2.4,17.63,3.86,35.75,5.84,52.98,11.37,5.1,1.64,30.06,9.47,31.15,20.22.6,5.95-7.57,12.49-11.23,16.23-5.31,5.42-10.83,10.65-16.53,15.66-10.92,9.59-22.66,19.72-35.48,26.69-1.18.64-2.63,1.25-3.79.57-.59-.35-.97-.98-1.17-1.64-1.33-4.34,2.51-11.42,4.15-15.43,3.99-9.72,9.49-19,14.73-28.1,5.48-9.52,11.44-18.77,18.17-27.45-20.04,14.94-29.33,23.14-41.35,36.62-12.02,13.48-34.8,34.8-49.37,62.85"/>
  <path class="st0" d="M253.21,138.66s41.07-33.96,45.81-70.29c.76-5.81-6.57-10.55-11-12.25-12.14-4.64-27.55-1.46-39.71,1.97-32.59,9.2-59.2,33.93-77.17,61.92-5,8.69-10.66,19.88-10.66,19.88,0,0,12.77,8.56,13.95,28.56,1.18,20.01-6.45,32.78-21.32,46.73-.77.72,3.42,9.89,3.94,10.95,4.36,8.79,13.56,13.6,23.12,14.31,8.51.64,33.43-1.52,41.08-5.29,12.59-6.2,23.49-17.02,29.52-29.32,4.36-8.89,9.08-17.77,9.23-27.12-.02,1.27-6.21,5.53-7.29,6.5-6.27,5.6-12.59,11.2-19.59,15.87-6.3,4.21-15.91,10.7-23.91,7.95-10.88-3.75-8.75-19.75-7.66-28.37,1.57-12.4,5.76-24.4,10.92-35.73,6.06-13.31,14.27-25.65,24.3-36.3,4.57-4.85,21.72-20.19,26.11-7.96.66,3.55-1.45,23.17-9.68,37.98Z"/>
  <path class="st0" d="M318.87,57.39l-2.7-13.06,47.65,10.77,15.73,83.06h15.8l-6.74,35.05,12.52,47.61h-40.84l-7.71-31.26,10.98-4.26-48.16-8.76-7.9,44.29h-40.84l13.1-50.69-12.14-2.37,17.72-18.95,23.69-91.43h9.82ZM340.64,138.63l-10.4-42.63-6.94,37.66-13.29,5.21h12.33l18.3-.24Z"/>
  <path class="st0" d="M401.89,86.09h-8.75c1.07-5.28,1.88-10.05,2.42-14.29.54-4.25.81-8.44.81-12.59s-3.05-.59-3.59-4.84c0,0-109.87-24.91-109.87-24.91,51.17,2.09,114.29,25.18,173.53,3.14l16.11,94.81,12.43-55.75,16.34,10.47-13.58-22.64,5.75-26.89c70.47-4.8,147.09-5.94,156.59-7.97-39.76,6.98-59.96,20.17-90.24,33.53-.81,5.78-.03,9.39.51,13.64.54,4.25,1.34,9.01,2.42,14.29h-8.75c-.77,10.75-1,21.08-.69,30.99.31,9.91,1,19.72,2.07,29.43,1.07,9.72,2.45,19.67,4.14,29.86,1.69,10.19,5.2,31.06,7.2,42.38l-53,.92v-109.24l-28.31,91.98h-20.95l-23.71-77.26c.77,19.06,2.49,38.21,5.18,57.45,2.68,19.24,7.02,40.28,13.01,63.11l-48.39-22.07-8.69-137.55Z"/>
  <path class="st0" d="M605.48,46.93c0,6.16-.45,16.49-.58,22.18-.13,5.68-.19,10.42-.19,14.21s-.07,8.92-.19,14.92c-.13,6-.1,12.36.1,19.07.19,6.71.58,13.46,1.16,20.25.58,6.79,1.51,12.95,2.79,18.48l-1.93,16.82,5.59-5.92c1.54,3.32,3.43,5.92,5.68,7.82,2.25,1.89,4.91,2.69,7.99,2.37,4.24-.31,7.64-2.45,10.21-6.4,2.57-3.95,4.49-8.65,5.78-14.09,1.28-5.45,2.12-11.17,2.5-17.17.39-6,.58-11.21.58-15.63,0-13.1-1-26.61-2.99-40.5-1.99-13.89-8.96-35.57-12.55-48.99,10.38-1.11,42.05-3.62,49.52-3.62,1.03,14.69,3,35.95,2.43,50.43s0,29.03,0,42.93c0,9.75-.49,19.44-1.46,29.08-.23,2.23-21.33,15.6-25,18.38,8.49,1.63,22.65-2.11,22.24.21-1.59,9.04-3.06,12.53-6.28,20.07-4.05,9.47-9.67,17.13-16.86,22.98-7.19,5.84-16.44,8.76-27.74,8.76-9.25,0-17.12-1.98-23.6-5.92-6.49-3.95-11.88-9.04-16.18-15.28-4.3-6.24-7.64-13.26-10.02-21.08-2.38-7.82-4.17-15.63-5.39-23.45-1.22-7.82-1.96-15.24-2.22-22.26-.26-7.02-.39-12.83-.39-17.41,0-9.47-.19-17.65-.58-24.51-.39-6.87-.43-21.17-1.14-26.22,6-3.37,38.7-20.47,38.7-20.47Z"/>
  <path class="st0" d="M686.27,29.57c7.06,0,14.77.08,23.12.24,8.35.16,16.76.95,25.24,2.37,8.48,1.42,16.66,3.71,24.56,6.87,7.9,3.16,14.93,7.7,21.09,13.62s11.08,13.54,14.74,22.86c3.66,9.32,5.49,20.77,5.49,34.34,0,14.69-2.22,26.37-6.65,35.05-4.43,8.69-10.69,15.08-18.78,19.19l36.02,54c-4.75.47-8.96,1.07-12.62,1.78-3.66.71-7.1,1.66-10.31,2.84-3.21,1.18-6.36,2.72-9.44,4.62-3.08,1.89-6.36,4.18-9.82,6.87l-26.2-62.06c-1.54.16-2.73.2-3.56.12-.84-.08-2.09-.12-3.76-.12l1.93,45.24h-43.92c1.03-7.42,1.89-14.37,2.6-20.84.7-6.47,1.25-12.91,1.64-19.3.39-6.4.61-12.99.67-19.78.06-6.79-.03-14.25-.29-22.38-.26-8.13-.67-17.17-1.25-27.12-.58-9.95-1.32-21.24-2.22-33.87-1.67,0-3.15.04-4.43.12-1.29.08-2.44.12-3.47.12l-.39-44.77ZM736.55,130.94c3.59-.47,6.94-1.34,10.02-2.61,3.08-1.26,5.78-3,8.09-5.21,2.31-2.21,4.14-4.86,5.49-7.93,1.35-3.08,2.02-6.67,2.02-10.78,0-5.68-1.29-10.38-3.85-14.09-2.57-3.71-5.94-6.71-10.11-9-4.17-2.29-8.89-3.99-14.16-5.09-5.27-1.1-10.59-1.81-15.99-2.13l16.57,11.84,1.93,45Z"/>
  <path class="st0" d="M837.28,55.68l-54.58-24.98,94.26,24.98,21,80.77h15.8l-6.74,35.05,12.52,47.61h-40.84l-7.71-31.26,10.98-4.26-48.16-8.76-16.76,39.56-23.25-33.02,4.36-12.93-12.14-2.37,17.72-18.95,23.69-91.43h9.82ZM859.04,136.92l-10.4-42.63-6.94,37.66-13.29,5.21h12.33l18.3-.24Z"/>
  <path class="st0" d="M922.59,168.68h12.57v-84.61l-22.2-2.89-5.94-35.7-76.66-17.16,161.03,4.49-4.19,51.25-23.82-4.61,15.44,10.58v78.64h12.57v51.25h-68.81v-51.25Z"/>
</svg>