<?xml version="1.0" encoding="UTF-8"?>
<svg id="Layer_1" xmlns="http://www.w3.org/2000/svg" version="1.1" viewBox="0 0 1080 1080">
  <!-- Generator: Adobe Illustrator 30.3.0, SVG Export Plug-In . SVG Version: 2.1.3 Build 182)  -->
  <defs>
    <style>
      .st0 {
        fill: #4fc5df;
      }
    </style>
  </defs>
  <g>
    <path class="st0" d="M758.12,839.37c4-4.35,7.93-8.55,11.82-12.68-8.04,7.84-11.82,12.68-11.82,12.68Z"/>
    <path class="st0" d="M769.94,826.69c30.92-30.17,124.95-104.81,310.06-119.69l-149.24-128.61s-157.73,65.59-212.91,108.28c0,0,108.28-96.3,165.02-120.77,0,0-18.74-64.55-23.43-97.87-31.75,20.3-76,47.37-76,47.37l-10.41,72.88-18.74-55.18s-152.53,109.84-226.97,187.4c48.93-55.7,148.88-175.43,304.53-259.24-17.18,3.64-47.89,11.45-47.89,11.45l-10.93-54.66-137.95,71.32,138.99-97.35,6.25-34.88s258.42-102.47,288.93-119.58c7.35-4.09,11.59-12.76,6.06-20.24-2.79-3.78-7.3-5.82-11.61-7.69-175.78-76.17-361.15-128.62-541.57-192.31-16.88-5.96-34.05-11.98-51.93-12.97-31.55-1.75-55.46,17.43-75.28,39.95-110.79,125.98-231.51,244.56-347.76,365.73-10.53,10.97-21.06,21.95-31.59,32.92l-14.33,14.92s-.35.21-1.26,1.2c1.22.28.54.09,1.85.45,0,0,77.26,24.55,280.53-24.89,9.54,11.52,15.89,19.34,15.89,19.34,0,0-7.81,17.44-8.59,22.12-.78,4.69-11.71,67.67-10.41,72.36,1.3,4.69,11.19,6.25,13.79,6.77,2.6.52,25.51.78,26.55,1.82,1.04,1.04,1.82,4.16,2.08,8.07.26,3.9-.52,24.73.26,25.25.78.52,12.23,8.07,14.58,8.33,2.34.26-5.73,10.15-3.9,14.84,1.82,4.69,15.88,11.19,17.7,18.22,1.82,7.03,1.56,43.73,1.56,43.73,0,0,23.16,19.52,35.4,23.17,12.75-3.38,89.02-27.33,89.02-27.33l22.91,37.05-71.67,95.26,35.4-85.2-78.08,69.58c5.09,26.26-77.91,144.31-145.72,138.78-54.54-4.45-105.58-29.11-131.11-55.62,15.42,16.02,80.56,91.76,193.69,104.29,92.64,10.26,161.85-27.29,184.25-40.72,20.64-32.54,41.28-65.08,61.92-97.62l-99.69,32.54,115.83-58.56s48.41-48.15,51.02-48.41c0,0-88.85,192.07-110.2,313.1,92.14-93.96,248.41-355.79,464.96-415.65,10.57,4.34,21.98,9.09,30.5,12.66-25.47-4.69-91.54,6.42-230.36,153.91ZM545.8,441.99l-4.16,28.63-61.69,52.58,65.85-81.21ZM978.67,209.04c-8.95.5-62.38,1.29-62.38.8s9.25-19.3,9.85-19.9,52.53,19.1,52.53,19.1ZM911.61,185.16c5.47,1.69,6.17,2.98,6.17,2.98l-12.14,23.08h-7.96c-.4-.7,13.93-26.07,13.93-26.07ZM874.56,185.99l6.61-11.57s4.97,1.69,5.97,2.19c1,.5,1.29,1.79,1.29,1.79,0,0-17.61,32.24-18.7,32.24s-7.66-2.79-7.66-2.79l11.25-19.68c.51-.84.93-1.51,1.24-2.18ZM705.77,113.64c-.93,1.14-1.7,2.46-2.35,3.63-.01.02.03.12.04.14.82,3.2,1.68,6.4,2.58,9.58.6,2.11,1.21,4.22,1.89,6.31.18.55,1.11,4.26,1.87,4.22.18,0,.32-.13.45-.25.89-.87,1.54-2.03,2.09-3.12.63-1.25,1.7-3.17,1.28-4.59-.21-.7-.42-1.41-.63-2.11-1.24-4.15-2.34-8.39-3.63-12.55l6.49,2.28c.26.85.51,1.7.79,2.55.18.55,1.11,4.26,1.87,4.22.18,0,.32-.13.45-.25.89-.87,1.54-2.03,2.09-3.12.2-.39.44-.85.66-1.34l2.68.94c-.4.61-.76,1.24-1.07,1.73-.67,1.01-1.55,1.96-1.87,3.17-.04.17-.07.36,0,.51.34.68,4.03-.35,4.6-.46,2.15-.44,4.29-.96,6.42-1.48.34-.08.68-.17,1.03-.26l8.82,3.1c-.21.37-.42.73-.61,1.08-.01.02.03.12.03.14.82,3.2,1.68,6.4,2.58,9.58.6,2.11,1.21,4.22,1.89,6.31.18.55,1.11,4.26,1.87,4.22.18,0,.32-.13.45-.25.89-.87,1.54-2.03,2.09-3.12.63-1.25,1.7-3.17,1.28-4.59-.21-.7-.42-1.41-.63-2.11-.89-2.98-1.71-6-2.58-9.01l3.41,1.2c.16.52.32,1.04.48,1.56.18.55,1.11,4.26,1.87,4.22.18,0,.32-.13.45-.25.89-.87,1.54-2.03,2.09-3.12.09-.18.19-.38.3-.59l2.59.91c-.22.37-.43.72-.62,1.01-.67,1.01-1.55,1.96-1.87,3.17-.04.17-.07.36,0,.51.34.68,4.03-.35,4.6-.46,2.01-.41,4-.89,5.99-1.38l18.12,6.37c.51,1.8,1.04,3.6,1.62,5.38.18.55,1.11,4.26,1.87,4.22.18,0,.32-.13.45-.25.89-.87,1.54-2.03,2.09-3.12.5-.99,1.26-2.39,1.35-3.64l4.02,1.41c-1.41.37-2.35,2.4-3.11,3.56-.67,1.01-1.55,1.96-1.87,3.17-.04.17-.07.36,0,.52.34.68,4.03-.35,4.6-.46,2.15-.44,4.29-.96,6.42-1.48,1.74-.43,3.48-.87,5.22-1.33l5.31,1.87s.02.08.03.09c.82,3.2,1.68,6.4,2.58,9.58.6,2.11,1.21,4.22,1.89,6.31.18.55,1.11,4.26,1.87,4.22.18,0,.32-.13.45-.25.89-.87,1.54-2.03,2.09-3.12.63-1.25,1.7-3.17,1.28-4.59-.21-.7-.42-1.41-.63-2.11-.74-2.49-1.44-5.01-2.15-7.53l23.16,8.14c-4.71.97-9.39,2.26-14.07,3.35-.72.17-1.43.33-2.15.5-1.44.33-2.39,2.41-3.16,3.58-.67,1.01-1.55,1.96-1.87,3.17-.04.17-.07.36,0,.52.34.68,4.03-.35,4.6-.46,2.15-.44,4.29-.96,6.42-1.48,3.21-.79,6.41-1.63,9.6-2.5.02,0,.12-.02.14-.04,1.04-1.72,2.23-3.81,2.58-5.89l26.03,9.15s-3.04,5.41-6.74,11.87c-.93.18-1.97.41-3.22.7-.72.17-1.43.33-2.15.5-1.44.33-2.39,2.41-3.16,3.58-.67,1.01-1.55,1.96-1.87,3.17-.04.17-.07.36,0,.52.34.68,4.03-.35,4.6-.46.46-.09.91-.2,1.37-.3-1.01,1.74-2.01,3.44-2.94,5.02-1.12.42-2.32.8-3.71,1.12-.72.17-1.43.33-2.15.5-1.44.33-2.39,2.41-3.16,3.58-.39.59-.84,1.15-1.22,1.75-.71-.27-1.5-.58-2.35-.9.51-.69.93-1.45,1.3-2.18.63-1.25,1.7-3.17,1.28-4.59-.21-.7-.42-1.41-.63-2.11-1.59-5.31-2.94-10.77-4.77-16-2.12,1.2-3.64,3.74-4.8,5.83-.01.02.03.12.04.14.82,3.2,1.68,6.4,2.58,9.58.6,2.11,1.21,4.22,1.89,6.31.08.25.32,1.17.63,2.08-4.59-1.77-10.64-4.11-17.73-6.86.89-.24,1.78-.47,2.66-.71.02,0,.12-.02.14-.04,1.24-2.04,2.69-4.61,2.69-7.05-5.37.98-10.69,2.48-16.01,3.72-2.21-.86-4.48-1.74-6.81-2.64-.13-.42-.25-.84-.38-1.26-1.59-5.31-2.94-10.77-4.77-16-2.12,1.2-3.64,3.74-4.8,5.83-.01.02.03.12.04.14.72,2.78,1.46,5.56,2.24,8.32-4.29-1.67-8.72-3.39-13.24-5.14,3.01-.75,6.01-1.53,9-2.34.02,0,.12-.02.14-.04,1.24-2.04,2.69-4.61,2.69-7.05-5.45,1-10.86,2.53-16.27,3.78-.72.17-1.43.33-2.15.5-.83.19-1.49.96-2.06,1.8-.88-.34-1.77-.69-2.65-1.03.46-1.04.83-2.18.55-3.12-.21-.7-.42-1.41-.63-2.11-1.59-5.31-2.94-10.77-4.77-16-2.12,1.2-3.64,3.74-4.8,5.83-.01.02.03.12.04.14.82,3.2,1.68,6.4,2.58,9.58.32,1.11.64,2.23.97,3.34-4.4-1.71-8.82-3.43-13.21-5.13,1.07-1.85,2.11-4,2.1-6.06-3.74.68-7.46,1.62-11.17,2.54-4.3-1.67-8.54-3.32-12.68-4.93-1.32-4.61-2.55-9.29-4.13-13.8-2.12,1.2-3.64,3.74-4.8,5.83-.01.02.03.12.03.14.42,1.63.85,3.25,1.29,4.88-5.84-2.27-11.41-4.44-16.6-6.46,1.2-.28,2.4-.56,3.6-.86,3.21-.79,6.41-1.63,9.6-2.5.02,0,.12-.02.14-.04,1.24-2.04,2.69-4.61,2.69-7.05-5.45,1-10.86,2.53-16.27,3.78-.72.17-1.43.33-2.15.5-1.44.33-2.39,2.41-3.16,3.58-.08.12-.15.23-.24.34-.82-.32-1.63-.63-2.42-.94.13-.25.27-.49.39-.73.63-1.25,1.7-3.17,1.28-4.59-.21-.7-.42-1.41-.63-2.11-1.59-5.31-2.94-10.77-4.77-16-2.12,1.2-3.64,3.74-4.8,5.83-.01.02.03.12.04.14.82,3.2,1.68,6.4,2.58,9.58.6,2.11,1.21,4.22,1.89,6.31,0,0,0,.02,0,.02-14.02-5.45-23.07-8.98-23.07-8.98l17.46-27.61,12.5,4.39ZM853.64,205.1c-.28.37-.46.57-.53.56-.03,0-.3-.1-.76-.28.02,0,.05-.01.07-.02.41-.08.82-.18,1.23-.27ZM677.46,103.73l7.46,3.28-17.01,27.16-7.61-3.43,17.16-27.01ZM653.13,95.67l-18.66,28.65-8.36-2.84,19.1-29.55,7.91,3.73ZM606.42,104.07l-.19-13.86c5.03-2.5,9.85-4.98,14.46-7.43l14.72,5.17s-116.6,192.65-124.96,220.87c6.37-.8,10.75-1.99,10.75-1.99,0,0,72.53-140.58,102.08-179.98,2.84,2.09,6.86,3.28,6.86,3.28,0,0-67.16,110.73-97.6,173.12,14.92-3.28,33.43-7.76,33.43-7.76,0,0,50.14-93.72,87.16-149.54,3.58,2.39,5.77,3.88,5.77,3.88,0,0-55.62,89.24-82.18,142.07l11.94-2.39s49.55-91.63,77.01-133.72c0,0,3.92,2.47,10.31,6.5-.76,1.02-1.41,2.14-1.97,3.15-.01.02.03.12.03.14.82,3.2,1.68,6.4,2.58,9.58.6,2.11,1.21,4.22,1.89,6.31.18.55,1.11,4.26,1.87,4.22.18,0,.32-.13.45-.25.89-.87,1.54-2.03,2.09-3.12.63-1.25,1.7-3.17,1.28-4.59-.21-.7-.42-1.41-.63-2.11-1.03-3.44-1.96-6.95-2.99-10.41,5.42,3.43,11.99,7.58,19.15,12.13-3.08.74-6.15,1.54-9.22,2.25-.72.17-1.43.33-2.15.5-1.44.33-2.39,2.41-3.16,3.58-.67,1.01-1.55,1.96-1.87,3.17-.04.17-.07.36,0,.52.34.68,4.03-.35,4.6-.46,2.15-.44,4.29-.96,6.42-1.48,3.21-.79,6.41-1.63,9.6-2.5.02,0,.12-.02.14-.04.38-.63.78-1.31,1.16-2.03,1.73,1.1,3.49,2.22,5.27,3.35.52,1.97,1.06,3.93,1.61,5.9.6,2.11,1.21,4.22,1.89,6.31.18.55,1.11,4.26,1.87,4.22.18,0,.32-.13.45-.25.89-.87,1.54-2.03,2.09-3.12.63-1.25,1.7-3.17,1.28-4.59-.21-.7-.42-1.41-.63-2.11-.11-.38-.23-.75-.34-1.12,2.6,1.65,5.2,3.32,7.8,4.98-.18.04-.34.07-.52.11-.72.17-1.43.33-2.15.5-1.44.33-2.39,2.41-3.16,3.58-.67,1.01-1.55,1.96-1.87,3.17-.04.17-.07.36,0,.52.34.68,4.03-.35,4.6-.46,2.15-.44,4.29-.96,6.42-1.48,1.42-.35,2.84-.71,4.25-1.08,4.04,2.59,8.02,5.14,11.83,7.6.03.09.05.19.08.28.6,2.11,1.21,4.22,1.89,6.31.18.55,1.11,4.26,1.87,4.22.18,0,.32-.13.45-.25.89-.87,1.54-2.03,2.09-3.12.36-.71.86-1.65,1.14-2.58.87.56,1.73,1.12,2.57,1.67-.56.74-1.03,1.62-1.45,2.25-.67,1.01-1.55,1.96-1.87,3.17-.04.17-.07.36,0,.51.34.68,4.03-.35,4.6-.46,1.76-.36,3.51-.78,5.26-1.2,10.63,6.96,17.93,11.9,18.59,12.78l1.19,9.85,31.04-6.51-66.56-39.04-112.83-66.18,101.76,45.44c.06.06.17.11.3.13l118.07,52.72s1.79.6,4.78.6,141.63-6.27,141.63-6.27l-23.82,5.54c-231.01,39.6-785.48,179.16-905.38,209.57l89.13-32.44s2.84-.75,3.28-1.19c.45-.45,2.69-3.13,4.78-6.12,1.3-1.86,58.69-74.27,101.83-128.66l9.33,14.94c.82,1.46,2.38,2.34,4.04,2.29l19.86-.56c-.86.87-1.34,2.05-1.31,3.3l.53,19.12,18.26-9.89c1.47-.8,2.37-2.34,2.35-4.01l-.26-19.34c.14,0,.28.02.42.02l20.49-.58c-.27.61-.41,1.27-.39,1.95l.45,16.32h-20.1s11.82,18.92,11.82,18.92c.82,1.46,2.38,2.34,4.04,2.29l17.77-.5-9.9,22.77-8.06,1.29-78.05-38.6-4.78,7.01,71.78,36.71-12.54,2.39-63.72-31.94-14.92,23.28,41.04,20.45-11.49,3.15-33.73-17.18-4.48,8.06,26.51,13.19-31.04,7.8-1.19-11.87-21.29,35.41s109.07-31.82,141.65-40.76h0c4.42-1.21,7.43-2,8.57-2.24.43-.09.85-.18,1.25-.28l.82-.21c7.62-2.07,8.5-5.52,8.5-5.52l22.16-72.21,2.62,4.19c.82,1.46,2.38,2.34,4.04,2.29l17.32-.49c-.02.19-.03.38-.02.58l.48,17.45c-.88-.33-1.73-.54-2.31-.51h-20.77s11.83,18.92,11.83,18.92c.41.74,1.02,1.32,1.73,1.72l-16.78,11.04c-1.31.86-2.08,2.34-2.04,3.91l.32,11.68,20.67-5.3c.1-.38.15-.77.14-1.17l-.27-19.61c.09,0,.17.01.26.01l22.15-.63c-.72.84-1.13,1.93-1.09,3.07l.35,12.8,20.1-5.15c.45-.72.7-1.56.69-2.44l-.26-19.24c.58.24,1.2.36,1.85.34l22.83-.65-.3.2c-1.31.86-2.08,2.34-2.04,3.91l.33,11.95,20.57-5.27c.15-.47.24-.96.24-1.47l-.27-20.18c.8.6,1.79.92,2.82.9l23.42-.66-12.54-17.71c-.43-.63-1.5-1.34-2.66-1.89l16.28-8.82c1.47-.8,2.37-2.34,2.35-4.01l-.26-18.88c.57.24,1.2.36,1.84.34l23.42-.66-12.54-17.71c-.56-.82-2.18-1.76-3.69-2.33l18.22-9.87c1.47-.8,2.37-2.34,2.35-4.01l-.25-18.13c.13,0,.25.02.38.02l23.42-.66-12.54-17.71c-.34-.51-1.09-1.06-1.97-1.54l17.81-9.65c1.47-.8,2.37-2.34,2.35-4.01l-.28-20.78c.46.14.93.21,1.43.2l23.42-.66-12.54-17.71c-.24-.35-.67-.72-1.2-1.08l17.87-9.68c1.47-.8,2.37-2.34,2.35-4.01ZM289.21,263.92c-.2-.03-.39-.04-.55-.03h-15.12c5.32-6.71,10.39-13.11,15.07-19.01h.45c-.23.56-.35,1.17-.33,1.81l.48,17.23ZM265.69,259.51l-.2-14.54c.66.34,1.41.53,2.19.51l12.62-.36-14.61,14.39ZM389.29,210.85l8.44-4.57c.78-.42,1.39-1.06,1.8-1.81l2.95,4.72-19.6,45.07-7.39-10.44c-.88-1.3-4.41-2.9-5.98-2.84h-.38l18.05-9.78c1.47-.8,2.37-2.34,2.35-4.01l-.22-16.34ZM426.93,148.79c7.52-1.28,15.18-2.73,22.98-4.36l.19,6.97,18.26-9.89c.71-.39,1.29-.95,1.7-1.62,8.21-1.99,16.22-4.09,24.01-6.3l.21,7.47,18.26-9.89c1.42-.77,2.31-2.24,2.34-3.85,8.57-2.74,16.86-5.59,24.86-8.51l.28,10.19c-1.2-.56-2.49-.96-3.29-.93h-20.77s11.82,18.92,11.82,18.92c.24.43.56.81.91,1.13l-16.83,11.08c-.77.51-1.35,1.24-1.69,2.07l-12.48-17.63c-.88-1.3-4.41-2.9-5.98-2.84h-20.77s11.82,18.92,11.82,18.92c.28.49.64.91,1.06,1.26l-16.37,10.78c-1.31.86-2.08,2.34-2.04,3.91l.48,17.52c-1.08-.46-2.18-.77-2.88-.74h-20.77s11.82,18.92,11.82,18.92c.06.11.14.21.21.32l-16.04,10.56c-.3.2-.56.43-.8.68l-12.06-17.03c-.42-.61-1.42-1.29-2.53-1.83l15.25-8.26c1.47-.8,2.37-2.34,2.35-4.01l-.27-20.05c.8.6,1.79.92,2.82.89l23.42-.66-12.54-17.71c-.88-1.3-4.41-2.9-5.98-2.84h-20.77s11.82,18.92,11.82,18.92c.1.18.22.36.34.52l-16.72,11.01-12.04-17c-.49-.72-1.79-1.53-3.12-2.1l17.17-9.3c1.47-.8,2.37-2.34,2.35-4.01v-.65ZM542.71,130.9c-.32-.48-1-.99-1.81-1.45l17.4-9.43c1.47-.8,2.37-2.34,2.35-4.01l-.07-5.23c8.64-3.5,16.89-7.05,24.74-10.61l.48,17.34c-1.42-.85-3.33-1.55-4.37-1.5h-20.77s11.82,18.92,11.82,18.92c.45.8,1.13,1.42,1.93,1.82l-18.13,11.93c-1.31.86-2.08,2.34-2.04,3.91l.51,18.63c-1.27-.63-2.7-1.09-3.55-1.05h-20.61c.25-.57.38-1.2.37-1.84l-.26-19.15c.36.08.74.13,1.12.12l23.42-.66-12.54-17.71ZM525.56,223.35c-.86-.32-1.69-.52-2.25-.49h-20.77s11.82,18.92,11.82,18.92c.1.19.22.36.35.53l-16.99,11.18c-1.31.86-2.08,2.34-2.04,3.91l.48,17.29c-.49-.13-.94-.2-1.29-.19h-20.77s11.82,18.92,11.82,18.92c.12.21.26.41.41.6l-17.3,11.39-12.36-17.46c-.46-.68-1.65-1.44-2.9-2l16.33-8.85c1.47-.8,2.37-2.34,2.35-4.01l-.25-18.5c.33.06.66.1,1,.09l23.42-.66-12.54-17.71c-.39-.58-1.32-1.22-2.36-1.75l16.24-8.8c1.47-.8,2.37-2.34,2.35-4.01l-.27-20.21c.63.3,1.33.46,2.05.44l23.42-.66-12.54-17.71c-.37-.54-1.2-1.13-2.15-1.64l17.79-9.64c.85-.46,1.51-1.18,1.91-2.03l11.74,18.78c.18.32.4.6.64.86l-15.83,10.42c-1.31.86-2.08,2.34-2.04,3.91l.53,19.08ZM441.75,304.03c.15.27.34.52.54.75l-17.19,11.31c-.05.04-.1.08-.15.12l-12.05-17.03c-.35-.51-1.1-1.06-1.98-1.55l16.61-9c1.47-.8,2.37-2.34,2.35-4.01l-.24-18c.08,0,.15.01.23,0l21.81-.62c-.24.58-.37,1.21-.35,1.85l.48,17.38c-.42-.1-.8-.15-1.11-.14h-20.77s11.82,18.92,11.82,18.92ZM440.75,248.26c-.88-1.3-4.41-2.9-5.98-2.84h-20.77s11.82,18.92,11.82,18.92c.18.31.39.59.63.85l-14.4,9.48-9.71-13.72c-.88-1.3-4.41-2.9-5.98-2.84h-1.93l17.22-9.33c1.47-.8,2.37-2.34,2.35-4.01l-.28-20.57c.26.04.52.06.79.06l22.39-.64c-.46.74-.72,1.62-.69,2.52l.53,19.12,18.26-9.89c1.47-.8,2.37-2.34,2.35-4.01l-.24-17.81c.33.07.67.11,1.02.1l22.6-.64c-1,.88-1.57,2.17-1.54,3.52l.47,17.19c-.59-.17-1.14-.27-1.55-.26h-20.77s11.82,18.92,11.82,18.92c.16.29.36.55.58.79l-16.38,10.78c-.35.23-.66.51-.93.82l-11.69-16.52ZM396.53,234.57l7.18-23.4,6.75,10.8c.51.91,1.3,1.59,2.23,1.97l-16.16,10.64ZM510.34,181.72c-1.22-.58-2.54-.99-3.34-.95h-20.45s-.25-18.78-.25-18.78c.17.01.34.03.51.02l23.32-.66c-.21.55-.32,1.15-.31,1.76l.51,18.62ZM486.54,181.25l11.52,18.44c.26.46.6.86,1,1.2l-17.79,11.71-12.26-17.32c-.29-.42-.86-.88-1.56-1.3l16.76-9.08c1.36-.74,2.23-2.11,2.33-3.64ZM421.42,182.61l-.07.04c-1.31.86-2.08,2.34-2.04,3.91l.45,16.49c-.13-.01-.25-.02-.36-.01h-13.2s2.54-8.26,2.54-8.26l-3.59,8.26h-5.13c.04-.26.07-.51.06-.78l-.26-19.04,21.6-.61ZM393.37,258.11h-4.06s3.73-12.14,3.73-12.14l.33,12.14ZM377.89,261.81l1,1.6-19,43.68-9.08-12.83c-.47-.68-1.67-1.45-2.93-2.02l14.61-7.92c1.47-.8,2.37-2.34,2.35-4.01l-.25-18.13h0l13.3-.38ZM348.73,240.97l11.83,18.92c.22.38.49.73.79,1.02l-15.61,10.27s-.02.01-.02.02l-11.23-15.86c-.75-1.11-3.43-2.43-5.17-2.76l16.86-9.13c1.47-.8,2.37-2.34,2.35-4.01l-.23-16.78,20.08-.57.52,18.87h-20.17ZM352.52,201.46h-18.53s-.26-19.19-.26-19.19l19.51-.55c-.78.86-1.21,1.99-1.18,3.17l.46,16.57ZM334,204l10.23,16.38s.06.09.09.14l-14.9,9.81c-.15.1-.29.21-.43.32l-10.98-15.51,13.65-7.4c1.39-.75,2.26-2.17,2.34-3.73ZM327.62,232.7c-.16.49-.25,1.01-.23,1.54l.5,18.28h-18.05c.02-.2.04-.41.03-.61l-.25-18.7,18-.51ZM319.56,271.44c.35.63.85,1.15,1.43,1.53l-14.96,9.85-11.39-16.09c-.49-.73-1.82-1.55-3.16-2.12l16.04-8.69c.61-.33,1.12-.8,1.51-1.34l10.54,16.86ZM290.77,242.78c-.26.17-.49.37-.7.58l-.12-.17c4.22-5.31,8.09-10.2,11.52-14.52l1.45,2.32c.57,1.02,1.51,1.75,2.59,2.08l-14.75,9.71ZM464.34,66.66l-.26-18.98,17.19.75-7.78-17.19c2.48.35,4.51.82,5.92,1.2l15.22,5.56-9.42,6.2c-1.31.86-2.08,2.34-2.04,3.91l.53,19.12,18.26-9.89c1.47-.8,2.37-2.34,2.35-4.01l-.16-11.84,19.55,7.15.19,7.06,7.7-4.17,15.87,5.8c-5.51,2.24-11.23,4.47-17.15,6.68l-1.56-3.44c-.69-1.52-2.17-2.54-3.83-2.63l-21.47-1.24,7.86,14.03c-6.11,2.05-12.4,4.05-18.88,6l-2.54-5.61c-.69-1.52-2.17-2.53-3.83-2.63l-21.47-1.24,8.39,14.97c-6.87,1.82-13.62,3.47-20.26,4.98l-2.12-4.69c-.69-1.52-2.17-2.54-3.83-2.63l-1.6-.09,16.8-9.1c1.47-.8,2.37-2.34,2.35-4.01ZM451.61,33.14l6.81,12.15c.53.95,1.38,1.65,2.37,2.02l-15.54,10.23c-.63.42-1.14.98-1.49,1.62l-7.91-17.47c3.53-2.85,8.78-6.29,15.77-8.55ZM426.5,78.34c1.47-.8,2.37-2.34,2.35-4.01l-.21-15.18,14.83.65c-.19.52-.28,1.08-.26,1.64l.5,18.24-17.8-1.03.59-.32ZM421.06,56.43l.14.25c.14.24.3.47.48.68l-4.17,2.74,3.55-3.67ZM407.74,70.18l.5,18.05,17.23-9.33,7.03,12.55c-6.73,1.3-13.31,2.46-19.72,3.48l-.99-2.18c-.69-1.52-2.17-2.54-3.83-2.63l-18.5-1.07,18.28-18.87ZM387.64,90.93l3.92,7c-4.09.51-8.11.97-12.04,1.37l8.11-8.37ZM353.26,125.07c148.69-13.73,226.64-56.21,226.64-56.21,0,0,3.78,1.54,8.76,3.98-142.37,62.23-240.36,59.4-240.36,59.4l4.96-7.16ZM324.21,158c14.18-.14,29.71-.76,46.37-2.12l.26,9.44,18.26-9.89c.67-.36,1.22-.89,1.62-1.5,5.01-.57,10.11-1.2,15.29-1.92l.28,10.33c-.67-.21-1.29-.34-1.75-.32h-20.77s11.82,18.92,11.82,18.92c.37.66.9,1.19,1.51,1.59l-16.14,10.62c-1.31.86-2.08,2.34-2.04,3.91l.42,15.12-8.95,5.89c-.35.23-.66.51-.93.82l-10.32-14.58c-.5-.73-1.83-1.56-3.19-2.13l14.87-8.06c1.47-.79,2.37-2.34,2.35-4.01l-.29-21.5-17.97,11.83-11.68-16.5c-.88-1.3-4.41-2.9-5.98-2.84h-15.95s2.89-3.09,2.89-3.09ZM318.43,164.18l9.89,15.84c.82,1.46,2.38,2.34,4.04,2.29l1.28-.04-18.73,12.33c-1.31.86-2.08,2.34-2.04,3.91l.38,13.77c-.53-.15-1.02-.23-1.39-.21h-19.3s-.27-19.92-.27-19.92l-.07.05,26.2-28.02ZM290.24,217.66c1.26-.68,2.09-1.91,2.3-3.29l7.23,11.57-12.98,12.78-8.23-11.63c-.4-.59-1.37-1.25-2.44-1.78l14.12-7.65ZM271.62,214.24l.28,10.02h-9.65s9.37-10.02,9.37-10.02ZM255.99,230.95l7.25,11.6-16.61,10.93c-1.31.86-2.08,2.34-2.04,3.91l.53,19.12,7.33-3.97-13.01,12.81-24.28-10.75,40.82-43.66ZM208.1,281.77l24.33,11.94-6.12,5.82-24.48-11.79,6.27-5.97ZM182.43,308.78l24.77,11.64-5.37,6.42-24.77-12.24,5.37-5.82ZM170.2,321.77l25.47,11.94s-6.03,7.46-13.79,16.96l-8.24-11.64c-.88-1.3-4.41-2.9-5.98-2.84h-11s13.53-14.43,13.53-14.43ZM150.8,342.44l7.92,12.67c.82,1.46,2.38,2.34,4.05,2.29l13.94-.4c-2.91,3.56-5.92,7.22-8.84,10.76l-.12-9.13-18.81,12.38c-.31.2-.58.44-.82.7l-10.66-15.05,13.35-14.23ZM122.62,372.49c.78.56,1.74.87,2.73.84l22.06-.63c-.36.68-.54,1.45-.52,2.24l.44,15.88c-2.75.99-9.73,3.65-16.72,6.34l-.28-20.81-18.81,12.38c-1.31.86-2.08,2.34-2.04,3.91l.34,12.47-26.99,9.78,39.78-42.41ZM439.69,670.18l98.56-90.93,7.63-49.97s7.64-60.39,9.37-64.2c1.74-3.82,39.91-118,39.91-118l-19.43,145.06s-7.29,50.32-15.27,96.83c-62.12,49.97-120.77,81.21-120.77,81.21Z"/>
  </g>
  <path class="st0" d="M675.64,201.68c.34.68,4.03-.35,4.6-.46,2.15-.44,4.29-.96,6.42-1.48,3.21-.79,6.41-1.63,9.6-2.5.02,0,.12-.02.14-.04,1.24-2.04,2.69-4.61,2.69-7.05-5.45,1-10.86,2.53-16.27,3.78-.72.17-1.43.33-2.15.5-1.44.33-2.39,2.41-3.16,3.58-.67,1.01-1.55,1.96-1.87,3.17-.04.17-.07.36,0,.51Z"/>
  <path class="st0" d="M668.93,189.5c.6,2.11,1.21,4.22,1.89,6.31.18.55,1.11,4.26,1.87,4.22.18,0,.32-.13.45-.25.89-.87,1.54-2.03,2.09-3.12.63-1.25,1.7-3.17,1.28-4.59-.21-.7-.42-1.41-.63-2.11-1.59-5.31-2.94-10.77-4.77-16-2.12,1.2-3.64,3.74-4.8,5.83-.01.02.03.12.04.14.82,3.2,1.68,6.4,2.58,9.58Z"/>
  <path class="st0" d="M688.34,211.18c1.24-2.04,2.69-4.61,2.69-7.05-5.45,1-10.86,2.53-16.27,3.78-.72.17-1.43.33-2.15.5-1.44.33-2.39,2.41-3.16,3.58-.67,1.01-1.55,1.96-1.87,3.17-.04.17-.07.36,0,.51.34.68,4.03-.35,4.6-.46,2.15-.44,4.29-.96,6.42-1.48,3.21-.79,6.41-1.63,9.6-2.5.02,0,.12-.02.14-.04Z"/>
  <path class="st0" d="M660.87,203.48c.6,2.11,1.21,4.22,1.89,6.31.18.55,1.11,4.26,1.87,4.22.18,0,.32-.13.45-.25.89-.87,1.54-2.03,2.09-3.12.63-1.25,1.7-3.17,1.28-4.59-.21-.7-.42-1.41-.63-2.11-1.59-5.31-2.94-10.77-4.77-16-2.12,1.2-3.64,3.74-4.8,5.83-.01.02.03.12.04.14.82,3.2,1.68,6.4,2.58,9.58Z"/>
  <path class="st0" d="M680.68,225.16c1.24-2.04,2.69-4.61,2.69-7.05-5.45,1-10.86,2.53-16.27,3.78-.72.17-1.43.33-2.15.5-1.44.33-2.39,2.41-3.16,3.58-.67,1.01-1.55,1.96-1.87,3.17-.04.17-.07.36,0,.52.34.68,4.03-.35,4.6-.46,2.15-.44,4.29-.96,6.42-1.48,3.21-.79,6.41-1.63,9.6-2.5.02,0,.12-.02.14-.04Z"/>
  <path class="st0" d="M653.21,217.45c.6,2.11,1.21,4.22,1.89,6.31.18.55,1.11,4.26,1.87,4.22.18,0,.32-.13.45-.25.89-.87,1.54-2.03,2.09-3.12.63-1.25,1.7-3.17,1.28-4.59-.21-.7-.42-1.41-.63-2.11-1.59-5.31-2.94-10.77-4.77-16-2.12,1.2-3.64,3.74-4.8,5.83-.01.02.03.12.04.14.82,3.2,1.68,6.4,2.58,9.58Z"/>
  <path class="st0" d="M672.91,239.98c1.24-2.04,2.69-4.61,2.69-7.05-5.45,1-10.86,2.53-16.27,3.78-.72.17-1.43.33-2.15.5-1.44.33-2.39,2.41-3.16,3.58-.67,1.01-1.55,1.96-1.87,3.17-.04.17-.07.36,0,.51.34.68,4.03-.35,4.6-.46,2.15-.44,4.29-.96,6.42-1.48,3.21-.79,6.41-1.63,9.6-2.5.02,0,.12-.02.14-.04Z"/>
  <path class="st0" d="M645.44,232.28c.6,2.11,1.21,4.22,1.89,6.31.18.55,1.11,4.26,1.87,4.22.18,0,.32-.13.45-.25.89-.87,1.54-2.03,2.09-3.12.63-1.25,1.7-3.17,1.28-4.59-.21-.7-.42-1.41-.63-2.11-1.59-5.31-2.94-10.77-4.77-16-2.12,1.2-3.64,3.74-4.8,5.83-.01.02.03.12.04.14.82,3.2,1.68,6.4,2.58,9.58Z"/>
  <path class="st0" d="M649.62,250.33c-1.44.33-2.39,2.41-3.16,3.58-.67,1.01-1.55,1.96-1.87,3.17-.04.17-.07.36,0,.51.34.68,4.03-.35,4.6-.46,2.15-.44,4.29-.96,6.42-1.48,3.21-.79,6.41-1.63,9.6-2.5.02,0,.12-.02.14-.04,1.24-2.04,2.69-4.61,2.69-7.05-5.45,1-10.86,2.53-16.27,3.78-.72.17-1.43.33-2.15.5Z"/>
  <path class="st0" d="M637.88,245.41c.6,2.11,1.21,4.22,1.89,6.31.18.55,1.11,4.26,1.87,4.22.18,0,.32-.13.45-.25.89-.87,1.54-2.03,2.09-3.12.63-1.25,1.7-3.17,1.28-4.59-.21-.7-.42-1.41-.63-2.11-1.59-5.31-2.94-10.77-4.77-16-2.12,1.2-3.64,3.74-4.8,5.83-.01.02.03.12.04.14.82,3.2,1.68,6.4,2.58,9.58Z"/>
  <path class="st0" d="M642.51,264.31c-1.44.33-2.39,2.41-3.16,3.58-.67,1.01-1.55,1.96-1.87,3.17-.04.17-.07.36,0,.51.34.68,4.03-.35,4.6-.46,2.15-.44,4.29-.96,6.42-1.48,3.21-.79,6.41-1.63,9.6-2.5.02,0,.12-.02.14-.04,1.24-2.04,2.69-4.61,2.69-7.05-5.45,1-10.86,2.53-16.27,3.78-.72.17-1.43.33-2.15.5Z"/>
  <path class="st0" d="M638.36,261.96c-.21-.7-.42-1.41-.63-2.11-1.59-5.31-2.94-10.77-4.77-16-2.12,1.2-3.64,3.74-4.8,5.83-.01.02.03.12.04.14.82,3.2,1.68,6.4,2.58,9.58.6,2.11,1.21,4.22,1.89,6.31.18.55,1.11,4.26,1.87,4.22.18,0,.32-.13.45-.25.89-.87,1.54-2.03,2.09-3.12.63-1.25,1.7-3.17,1.28-4.59Z"/>
  <path class="st0" d="M628.44,272.89c-1.59-5.31-2.94-10.77-4.77-16-2.12,1.2-3.64,3.74-4.8,5.83-.01.02.03.12.04.14.82,3.2,1.68,6.4,2.58,9.58.6,2.11,1.21,4.22,1.89,6.31.18.55,1.11,4.26,1.87,4.22.18,0,.32-.13.45-.25.89-.87,1.54-2.03,2.09-3.12.63-1.25,1.7-3.17,1.28-4.59-.21-.7-.42-1.41-.63-2.11Z"/>
  <path class="st0" d="M679.33,261.21c-1.59-5.31-2.94-10.77-4.77-16-2.12,1.2-3.64,3.74-4.8,5.83-.01.02.03.12.04.14.82,3.2,1.68,6.4,2.58,9.58.6,2.11,1.21,4.22,1.89,6.31.18.55,1.11,4.26,1.87,4.22.18,0,.32-.13.45-.25.89-.87,1.54-2.03,2.09-3.12.63-1.25,1.7-3.17,1.28-4.59-.21-.7-.42-1.41-.63-2.11Z"/>
  <path class="st0" d="M692.77,252.54c-1.44.33-2.39,2.41-3.16,3.58-.67,1.01-1.55,1.96-1.87,3.17-.04.17-.07.36,0,.51.34.68,4.03-.35,4.6-.46,2.15-.44,4.29-.96,6.42-1.48,3.21-.79,6.41-1.63,9.6-2.5.02,0,.12-.02.14-.04,1.24-2.04,2.69-4.61,2.69-7.05-5.45,1-10.86,2.53-16.27,3.78-.72.17-1.43.33-2.15.5Z"/>
  <path class="st0" d="M688.62,250.2c-.21-.7-.42-1.41-.63-2.11-1.59-5.31-2.94-10.77-4.77-16-2.12,1.2-3.64,3.74-4.8,5.83-.01.02.03.12.04.14.82,3.2,1.68,6.4,2.58,9.58.6,2.11,1.21,4.22,1.89,6.31.18.55,1.11,4.26,1.87,4.22.18,0,.32-.13.45-.25.89-.87,1.54-2.03,2.09-3.12.63-1.25,1.7-3.17,1.28-4.59Z"/>
  <path class="st0" d="M723.84,226.69c1.24-2.04,2.69-4.61,2.69-7.05-5.45,1-10.86,2.53-16.27,3.78-.72.16-1.43.33-2.15.5-1.44.33-2.39,2.41-3.16,3.58-.67,1.01-1.55,1.96-1.87,3.17-.04.17-.07.36,0,.51.34.68,4.03-.35,4.6-.46,2.15-.44,4.29-.96,6.42-1.48,3.21-.79,6.41-1.63,9.6-2.5.02,0,.12-.02.14-.04Z"/>
  <path class="st0" d="M698.27,225.3c.18.55,1.11,4.26,1.87,4.22.18,0,.32-.13.45-.25.89-.87,1.54-2.03,2.09-3.12.63-1.25,1.7-3.17,1.28-4.59-.21-.7-.42-1.41-.63-2.11-1.59-5.31-2.94-10.77-4.77-16-2.12,1.2-3.64,3.74-4.8,5.83-.01.02.03.12.04.14.82,3.2,1.68,6.4,2.58,9.58.6,2.11,1.21,4.22,1.89,6.31Z"/>
  <path class="st0" d="M700.07,245.36c2.15-.44,4.29-.96,6.42-1.48,3.21-.79,6.41-1.63,9.6-2.5.02,0,.12-.02.14-.04,1.24-2.04,2.69-4.61,2.69-7.05-5.45,1-10.86,2.53-16.27,3.78-.72.17-1.43.33-2.15.5-1.44.33-2.39,2.41-3.16,3.58-.67,1.01-1.55,1.96-1.87,3.17-.04.17-.07.36,0,.52.34.68,4.03-.35,4.6-.46Z"/>
  <path class="st0" d="M688.76,233.64c.6,2.11,1.21,4.22,1.89,6.31.18.55,1.11,4.26,1.87,4.22.18,0,.32-.13.45-.25.89-.87,1.54-2.03,2.09-3.12.63-1.25,1.7-3.17,1.28-4.59-.21-.7-.42-1.41-.63-2.11-1.59-5.31-2.94-10.77-4.77-16-2.12,1.2-3.64,3.74-4.8,5.83-.01.02.03.12.04.14.82,3.2,1.68,6.4,2.58,9.58Z"/>
  <path class="st0" d="M710.85,216.51c.34.68,4.03-.35,4.6-.46,2.15-.44,4.29-.96,6.42-1.48,3.21-.79,6.41-1.63,9.6-2.5.02,0,.12-.02.14-.04,1.24-2.04,2.69-4.61,2.69-7.05-5.45,1-10.86,2.53-16.27,3.78-.72.17-1.43.33-2.15.5-1.44.33-2.39,2.41-3.16,3.58-.67,1.01-1.55,1.96-1.87,3.17-.04.17-.07.36,0,.51Z"/>
  <path class="st0" d="M704.14,204.32c.6,2.11,1.21,4.22,1.89,6.31.18.55,1.11,4.26,1.87,4.22.18,0,.32-.13.45-.25.89-.87,1.54-2.03,2.09-3.12.63-1.25,1.7-3.17,1.28-4.59-.21-.7-.42-1.41-.63-2.11-1.59-5.31-2.94-10.77-4.77-16-2.12,1.2-3.64,3.74-4.8,5.83-.01.02.03.12.04.14.82,3.2,1.68,6.4,2.58,9.58Z"/>
  <path class="st0" d="M750.63,225.44c-1.44.33-2.39,2.41-3.16,3.58-.67,1.01-1.55,1.96-1.87,3.17-.04.17-.07.36,0,.52.34.68,4.03-.35,4.6-.46,2.15-.44,4.29-.96,6.42-1.48,3.21-.79,6.41-1.63,9.6-2.5.02,0,.12-.02.14-.04,1.24-2.04,2.69-4.61,2.69-7.05-5.45,1-10.86,2.53-16.27,3.78-.72.17-1.43.33-2.15.5Z"/>
  <path class="st0" d="M738.89,220.51c.6,2.11,1.21,4.22,1.89,6.31.18.55,1.11,4.26,1.87,4.22.18,0,.32-.13.45-.25.89-.87,1.54-2.03,2.09-3.12.63-1.25,1.7-3.17,1.28-4.59-.21-.7-.42-1.41-.63-2.11-1.59-5.31-2.94-10.77-4.77-16-2.12,1.2-3.64,3.74-4.8,5.83-.01.02.03.12.04.14.82,3.2,1.68,6.4,2.58,9.58Z"/>
  <path class="st0" d="M744.55,240.26c-1.44.33-2.39,2.41-3.16,3.58-.67,1.01-1.55,1.96-1.87,3.17-.04.17-.07.36,0,.51.34.68,4.03-.35,4.6-.46,2.15-.44,4.29-.96,6.42-1.48,3.21-.79,6.41-1.63,9.6-2.5.02,0,.12-.02.14-.04,1.24-2.04,2.69-4.61,2.69-7.05-5.45,1-10.86,2.53-16.27,3.78-.72.17-1.43.33-2.15.5Z"/>
  <path class="st0" d="M740.39,237.91c-.21-.7-.42-1.41-.63-2.11-1.59-5.31-2.94-10.77-4.77-16-2.12,1.2-3.64,3.74-4.8,5.83-.01.02.03.12.04.14.82,3.2,1.68,6.4,2.58,9.58.6,2.11,1.21,4.22,1.89,6.31.18.55,1.11,4.26,1.87,4.22.18,0,.32-.13.45-.25.89-.87,1.54-2.03,2.09-3.12.63-1.25,1.7-3.17,1.28-4.59Z"/>
  <path class="st0" d="M730.01,248.84c-1.59-5.31-2.94-10.77-4.77-16-2.12,1.2-3.64,3.74-4.8,5.83-.01.02.03.12.04.14.82,3.2,1.68,6.4,2.58,9.58.6,2.11,1.21,4.22,1.89,6.31.18.55,1.11,4.26,1.87,4.22.18,0,.32-.13.45-.25.89-.87,1.54-2.03,2.09-3.12.63-1.25,1.7-3.17,1.28-4.59-.21-.7-.42-1.41-.63-2.11Z"/>
  <path class="st0" d="M610.91,276.69s.03.12.04.14c.6,2.33,1.23,4.66,1.87,6.98l6.33-1.58c-1.07-3.82-2.13-7.65-3.44-11.37-2.12,1.2-3.64,3.74-4.8,5.83Z"/>
  <path class="st0" d="M662.89,265.01s.03.12.04.14c.5,1.94,1.02,3.87,1.54,5.81l6.33-1.57c-.96-3.43-1.94-6.86-3.11-10.2-2.12,1.2-3.64,3.74-4.8,5.83Z"/>
  <path class="st0" d="M713.34,252.64s.03.12.04.14c.48,1.89.99,3.77,1.5,5.64l6.33-1.57c-.95-3.37-1.91-6.75-3.06-10.03-2.12,1.2-3.64,3.74-4.8,5.83Z"/>
  <path class="st0" d="M773.85,224.83c-2.12,1.2-3.64,3.74-4.8,5.83-.01.02.03.12.04.14.82,3.2,1.68,6.4,2.58,9.58.35,1.22.7,2.44,1.07,3.65l6.37-1.58c-.16-.54-.32-1.07-.48-1.61-1.59-5.31-2.94-10.77-4.77-16Z"/>
  <path class="st0" d="M849.6,179.92c.6,2.11,1.21,4.22,1.89,6.31.18.55,1.11,4.26,1.87,4.22.18,0,.32-.13.45-.25.89-.87,1.54-2.03,2.09-3.12.63-1.25,1.7-3.17,1.28-4.59-.21-.7-.42-1.41-.63-2.11-1.59-5.31-2.94-10.77-4.77-16-2.12,1.2-3.64,3.74-4.8,5.83-.01.02.03.12.04.14.82,3.2,1.68,6.4,2.58,9.58Z"/>
  <path class="st0" d="M815.68,186.22c.34.68,4.03-.35,4.6-.46,2.15-.44,4.29-.96,6.42-1.48,3.21-.79,6.41-1.63,9.6-2.5.02,0,.12-.02.14-.04,1.24-2.04,2.69-4.61,2.69-7.05-5.45,1-10.86,2.53-16.27,3.78-.72.17-1.43.33-2.15.5-1.44.33-2.39,2.41-3.16,3.58-.67,1.01-1.55,1.96-1.87,3.17-.04.17-.07.36,0,.51Z"/>
  <path class="st0" d="M806.38,164.46c.82,3.2,1.68,6.4,2.58,9.58.6,2.11,1.21,4.22,1.89,6.31.18.55,1.11,4.26,1.87,4.22.18,0,.32-.13.45-.25.89-.87,1.54-2.03,2.09-3.12.63-1.25,1.7-3.17,1.28-4.59-.21-.7-.42-1.41-.63-2.11-1.59-5.31-2.94-10.77-4.77-16-2.12,1.2-3.64,3.74-4.8,5.83-.01.02.03.12.04.14Z"/>
  <path class="st0" d="M784.45,167.12c.34.68,4.03-.35,4.6-.46,2.15-.44,4.29-.96,6.42-1.48,3.21-.79,6.41-1.63,9.6-2.5.02,0,.12-.02.14-.04,1.24-2.04,2.69-4.61,2.69-7.05-5.45,1-10.86,2.53-16.27,3.78-.72.17-1.43.33-2.15.5-1.44.33-2.39,2.41-3.16,3.58-.67,1.01-1.55,1.96-1.87,3.17-.04.17-.07.36,0,.51Z"/>
  <path class="st0" d="M777.73,154.93c.6,2.11,1.21,4.22,1.89,6.31.18.55,1.11,4.26,1.87,4.22.18,0,.32-.13.45-.25.89-.87,1.54-2.03,2.09-3.12.63-1.25,1.7-3.17,1.28-4.59-.21-.7-.42-1.41-.63-2.11-1.59-5.31-2.94-10.77-4.77-16-2.12,1.2-3.64,3.74-4.8,5.83-.01.02.03.12.04.14.82,3.2,1.68,6.4,2.58,9.58Z"/>
  <path class="st0" d="M756.27,148.41c2.15-.44,4.29-.96,6.42-1.48,3.21-.79,6.41-1.63,9.6-2.5.02,0,.12-.02.14-.04,1.24-2.04,2.69-4.61,2.69-7.05-5.45,1-10.86,2.53-16.27,3.78-.72.17-1.43.33-2.15.5-1.44.33-2.39,2.41-3.16,3.58-.67,1.01-1.55,1.96-1.87,3.17-.04.17-.07.36,0,.51.34.68,4.03-.35,4.6-.46Z"/>
  <path class="st0" d="M744.57,161.23c.34.68,4.03-.35,4.6-.46,2.15-.44,4.29-.96,6.42-1.48,3.21-.79,6.41-1.63,9.6-2.5.02,0,.12-.02.14-.04,1.24-2.04,2.69-4.61,2.69-7.05-5.45,1-10.86,2.53-16.27,3.78-.72.16-1.43.33-2.15.5-1.44.33-2.39,2.41-3.16,3.58-.67,1.01-1.55,1.96-1.87,3.17-.04.17-.07.36,0,.51Z"/>
  <path class="st0" d="M735.27,139.47c.82,3.2,1.68,6.4,2.58,9.58.6,2.11,1.21,4.22,1.89,6.31.18.55,1.11,4.26,1.87,4.22.18,0,.32-.13.45-.25.89-.87,1.54-2.03,2.09-3.12.63-1.25,1.7-3.17,1.28-4.59-.21-.7-.42-1.41-.63-2.11-1.59-5.31-2.94-10.77-4.77-16-2.12,1.2-3.64,3.74-4.8,5.83-.01.02.03.12.04.14Z"/>
  <path class="st0" d="M717.99,138.11c2.15-.44,4.29-.96,6.42-1.48,3.21-.79,6.41-1.63,9.6-2.5.02,0,.12-.02.14-.04,1.24-2.04,2.69-4.61,2.69-7.05-5.45,1-10.86,2.53-16.27,3.78-.72.17-1.43.33-2.15.5-1.44.33-2.39,2.41-3.16,3.58-.67,1.01-1.55,1.96-1.87,3.17-.04.17-.07.36,0,.51.34.68,4.03-.35,4.6-.46Z"/>
</svg>